<?xml version="1.0" encoding="utf-8"?>
<!-- Generator: Adobe Illustrator 22.0.1, SVG Export Plug-In . SVG Version: 6.00 Build 0)  -->
<svg version="1.1" id="Layer_1" xmlns="http://www.w3.org/2000/svg" xmlns:xlink="http://www.w3.org/1999/xlink" x="0px" y="0px"
	 viewBox="0 0 196.8 48.3" style="enable-background:new 0 0 196.8 48.3;" xml:space="preserve">
<style type="text/css">
	.st0{fill:#281160;}
	.st1{fill-rule:evenodd;clip-rule:evenodd;fill:#FFFFFF;}
	.st2{fill-rule:evenodd;clip-rule:evenodd;fill:#EE4A7E;}
</style>
<g>
	<path class="st0" d="M40.4,45.6h-36c-1.9,0-3.5-1.6-3.5-3.5v-36c0-1.9,1.6-3.5,3.5-3.5h36c1.9,0,3.5,1.6,3.5,3.5v36
		C43.9,44,42.3,45.6,40.4,45.6z"/>
	<path class="st1" d="M31.1,8.1h-2.6c-1.2,0-2.2,0.6-2.7,1.6c0,0,0,0,0,0.1c-0.1,0.2-0.3,0.5-0.4,0.7c-1.6,2.6-3,4.7-3,4.7
		s-0.4-0.7-1-1.7c-0.5-0.8-1.1-1.9-1.8-3c-0.1-0.2-0.2-0.4-0.4-0.6c0-0.1-0.1-0.1-0.1-0.2c-0.5-0.9-1.5-1.5-2.7-1.5h-2.6
		c-1.7,0-3.1,1.4-3.1,3.1v3.6H11c1.7,0,3.1,1.4,3.1,3.1c0,1.6-1.2,2.9-2.8,3.1c-0.1,0-0.2,0-0.4,0h-0.4v5.8H11
		c1.7,0,3.1,1.4,3.1,3.1c0,1.6-1.2,2.9-2.8,3.1c-0.1,0-0.2,0-0.4,0h-0.4v3.6c0,1.4,0.9,2.5,2.1,2.9c0,0,0,0,0,0c0,0,0,0,0,0
		c1.2-2.2,2.5-4.3,3.4-5.6c0.5-0.8,0.8-1.3,0.8-1.3s0.1,0.2,0.4,0.6c0.5,0.8,1.3,2.2,2.2,3.8c0.3,0.5,0.6,1.1,1,1.7
		c0.2,0.3,0.4,0.7,0.6,1h2.7c0.5-0.9,1.1-1.9,1.6-2.7c1-1.6,1.8-3,2.3-3.7c0.3-0.4,0.4-0.6,0.4-0.6s0.3,0.5,0.8,1.3
		c0.8,1.3,2.1,3.5,3.3,5.5h0c1.2-0.4,2.1-1.6,2.1-2.9V11.2C34.2,9.5,32.8,8.1,31.1,8.1z M22.4,30.8c-0.4,0-0.8-0.1-1.1-0.2
		c-1.2-0.4-2-1.6-2-2.9s0.8-2.5,2-2.9c0.2-0.1,0.5-0.2,0.8-0.2c0.1,0,0.2,0,0.4,0c0.7,0,1.4,0.3,1.9,0.7c0.3,0.2,0.5,0.5,0.7,0.8
		c0,0.1,0.1,0.1,0.1,0.2c0.2,0.4,0.3,0.9,0.3,1.4C25.5,29.4,24.1,30.8,22.4,30.8z"/>
	<path class="st2" d="M22.4,20.5c-4,0-7.2,3.2-7.2,7.2c0,0.9,0.2,1.8,0.5,2.7c0.9,2.2,5,9.1,6.3,11.2c0,0,0.1,0.1,0.1,0.1
		c0.1,0.1,0.2,0.1,0.3,0.1c0.1,0,0.3-0.1,0.3-0.2c0,0,0,0,0-0.1c0,0,0,0,0,0c1.5-2.3,6.8-10.5,6.8-13.9
		C29.5,23.8,26.3,20.5,22.4,20.5z M22.4,30.8c-1.7,0-3.1-1.4-3.1-3.1c0-1.6,1.2-2.9,2.8-3.1c0.1,0,0.2,0,0.4,0
		c0.7,0,1.4,0.3,1.9,0.7c0.3,0.2,0.5,0.5,0.7,0.8c0,0.1,0.1,0.1,0.1,0.2c0.2,0.4,0.3,0.9,0.3,1.4C25.5,29.4,24.1,30.8,22.4,30.8z"/>
	<path class="st0" d="M61,34.4c0.5,0,0.9,0.2,1.3,0.5c0.4,0.4,0.5,0.8,0.5,1.3c0,0.5-0.2,0.9-0.5,1.3C61.9,37.8,61.5,38,61,38h-9.5
		c-0.5,0-0.9-0.2-1.3-0.5c-0.3-0.4-0.5-0.8-0.5-1.3V12.1c0-0.5,0.2-0.9,0.5-1.3c0.4-0.3,0.8-0.5,1.3-0.5H61c0.5,0,0.9,0.2,1.3,0.5
		c0.4,0.4,0.5,0.8,0.5,1.3c0,0.5-0.2,0.9-0.5,1.3c-0.3,0.4-0.8,0.5-1.3,0.5h-7.7v7.5h6.5c0.5,0,0.9,0.2,1.3,0.5
		c0.3,0.3,0.5,0.8,0.5,1.3c0,0.5-0.2,0.9-0.5,1.3c-0.4,0.4-0.8,0.5-1.3,0.5h-6.5v9.4H61z"/>
	<path class="st0" d="M79.8,18.6c0.5,0.2,0.8,0.5,1,0.9c0.2,0.4,0.2,0.9,0,1.4l-6,15.9c-0.2,0.5-0.5,0.8-1,1h0h0c0,0,0,0,0,0
		c-0.1,0-0.2,0-0.3,0.1c0,0-0.1,0-0.1,0c-0.1,0-0.1,0-0.2,0c-0.1,0-0.1,0-0.2,0c-0.1,0-0.1,0-0.1,0c-0.1,0-0.2,0-0.3-0.1
		c0,0,0,0,0,0h0h0c-0.5-0.2-0.8-0.5-1-1l-6-15.9c-0.2-0.5-0.1-0.9,0.1-1.4c0.2-0.4,0.5-0.8,1-0.9c0.5-0.2,0.9-0.2,1.4,0
		c0.5,0.2,0.8,0.5,0.9,1l4.4,11.5l4.3-11.5c0.2-0.5,0.5-0.8,0.9-1c0.4-0.2,0.7-0.3,0.7-0.3S79.3,18.4,79.8,18.6z"/>
	<path class="st0" d="M99.3,26.4c0,0.7-0.2,1.3-0.5,1.8c-0.7,1.2-1.7,1.8-3.1,1.8l-8.9,0c0,1.2,0.4,2.3,1.3,3.1
		c0.9,0.9,1.9,1.3,3.1,1.3h0.1c1.5,0,2.7-0.6,3.6-1.8c0.5-0.7,1.2-0.9,2-0.6c0.6,0.2,1,0.6,1.1,1.2c0.2,0.6,0.1,1.1-0.3,1.6
		C96.2,36.9,94,38,91.3,38h-0.1c-2.2,0-4.1-0.8-5.6-2.3c-1.6-1.5-2.3-3.4-2.4-5.6v-3.7c0-2.2,0.8-4.1,2.3-5.6
		c1.6-1.6,3.5-2.3,5.7-2.3h0.1c2.2,0,4.1,0.8,5.7,2.4c0.7,0.8,1.3,1.6,1.7,2.6c0.2,0.5,0.4,1.1,0.5,1.6c0.1,0.4,0.1,0.7,0.1,0.7
		S99.3,25.9,99.3,26.4z M86.8,26.4h8.9c0-1.2-0.4-2.2-1.3-3.1c-0.9-0.9-1.9-1.3-3.1-1.3h-0.1c-1.2,0-2.3,0.4-3.1,1.3
		C87.2,24.1,86.8,25.2,86.8,26.4L86.8,26.4z"/>
	<path class="st0" d="M110.6,18.3c2.2,0,4.1,0.8,5.7,2.3c1.6,1.6,2.3,3.5,2.3,5.7v9.9c0,0.5-0.2,0.9-0.5,1.3
		c-0.3,0.3-0.8,0.5-1.3,0.5s-0.9-0.2-1.3-0.5c-0.3-0.4-0.5-0.8-0.5-1.3v-9.9c0-1.2-0.4-2.3-1.3-3.1c-0.9-0.9-1.9-1.3-3.1-1.3h-0.1
		c-1.2,0-2.3,0.4-3.1,1.3c-0.9,0.9-1.3,1.9-1.3,3.1v9.9c0,0.5-0.2,0.9-0.5,1.3c-0.4,0.3-0.8,0.5-1.3,0.5c-0.5,0-0.9-0.2-1.3-0.5
		c-0.3-0.4-0.5-0.8-0.5-1.3V20.1c0-0.5,0.2-0.9,0.5-1.3c0.4-0.3,0.8-0.5,1.3-0.5c0.9,0,1.5,0.5,1.7,1.4c1.3-0.9,2.8-1.4,4.5-1.4
		H110.6z"/>
	<path class="st0" d="M129.3,34.4c0.5,0,0.9,0.2,1.3,0.5c0.4,0.4,0.5,0.8,0.5,1.3c0,0.5-0.2,0.9-0.5,1.3c-0.3,0.3-0.8,0.5-1.3,0.5h0
		c-2.2,0-4.1-0.8-5.7-2.3c-1.6-1.6-2.3-3.5-2.3-5.7V12.6c0-0.5,0.2-0.9,0.5-1.3c0.4-0.3,0.8-0.5,1.3-0.5c0.5,0,0.9,0.2,1.3,0.5
		c0.3,0.4,0.5,0.8,0.5,1.3v6h2.9c0.5,0,0.9,0.2,1.3,0.5c0.4,0.3,0.5,0.8,0.5,1.3c0,0.5-0.2,0.9-0.5,1.3c-0.3,0.4-0.8,0.5-1.3,0.5
		h-2.9V30c0,1.2,0.4,2.3,1.3,3.1C127,34,128,34.4,129.3,34.4L129.3,34.4z"/>
	<path class="st0" d="M145.6,35.1c0.3,0.4,0.4,0.8,0.3,1.3c-0.1,0.5-0.3,0.9-0.7,1.2c-0.4,0.3-0.8,0.4-1.3,0.3
		c-0.5-0.1-0.9-0.3-1.2-0.7l-5.4-7.1v6c0,0.5-0.2,0.9-0.5,1.3c-0.4,0.3-0.8,0.5-1.3,0.5c-0.5,0-0.9-0.2-1.3-0.5
		c-0.3-0.4-0.5-0.8-0.5-1.3V12.6c0-0.5,0.2-0.9,0.5-1.3c0.4-0.4,0.8-0.5,1.3-0.5c0.5,0,0.9,0.2,1.3,0.5c0.3,0.3,0.5,0.8,0.5,1.3
		v11.7l5.2-5.2c0.3-0.3,0.8-0.5,1.3-0.5c0.5,0,0.9,0.2,1.3,0.5c0.3,0.3,0.5,0.8,0.5,1.3c0,0.5-0.2,0.9-0.5,1.3l-5.5,5.5L145.6,35.1z
		"/>
	<path class="st0" d="M156.1,18.3c2.2,0,4.1,0.8,5.7,2.3c1.6,1.6,2.3,3.5,2.3,5.7V30c0,2.2-0.8,4.1-2.3,5.7
		c-1.6,1.6-3.5,2.3-5.7,2.3H156c-2.2,0-4.1-0.8-5.7-2.3c-1.6-1.6-2.3-3.5-2.3-5.7v-3.7c0-2.2,0.8-4.1,2.3-5.7
		c1.6-1.6,3.5-2.3,5.7-2.3H156.1z M160.5,26.3c0-1.2-0.4-2.3-1.3-3.1c-0.9-0.9-1.9-1.3-3.1-1.3H156c-1.2,0-2.3,0.4-3.1,1.3
		c-0.9,0.9-1.3,1.9-1.3,3.1V30c0,1.2,0.4,2.3,1.3,3.1c0.9,0.9,1.9,1.3,3.1,1.3h0.1c1.2,0,2.2-0.4,3.1-1.3c0.9-0.9,1.3-1.9,1.3-3.1
		V26.3z"/>
	<path class="st0" d="M187.9,18.3c2.2,0,4.1,0.8,5.7,2.3c1.6,1.6,2.3,3.5,2.3,5.7v9.9c0,0.5-0.2,0.9-0.5,1.3
		c-0.3,0.4-0.8,0.5-1.3,0.5c-0.5,0-0.9-0.2-1.3-0.5c-0.3-0.3-0.5-0.8-0.5-1.3v-9.9c0-1.2-0.4-2.3-1.3-3.1c-0.9-0.9-1.9-1.3-3.1-1.3
		h-0.1c-1.2,0-2.3,0.4-3.1,1.3c-0.9,0.9-1.3,1.9-1.3,3.1v0v9.8c0,0.5-0.2,0.9-0.5,1.3c-0.3,0.3-0.8,0.5-1.3,0.5
		c-0.5,0-0.9-0.2-1.3-0.5c-0.3-0.4-0.5-0.8-0.5-1.3v-9.9c0-1.2-0.4-2.3-1.3-3.1c-0.9-0.9-1.9-1.3-3.1-1.3h-0.1
		c-1.2,0-2.3,0.4-3.1,1.3c-0.9,0.9-1.3,1.9-1.3,3.1v9.9c0,0.5-0.2,1-0.6,1.3c-0.4,0.4-0.8,0.5-1.3,0.5c-0.5,0-0.9-0.2-1.2-0.6
		c-0.3-0.4-0.5-0.8-0.5-1.3V20.3c0-0.6,0.2-1,0.7-1.4c0.4-0.4,0.9-0.5,1.5-0.4c0.6,0.1,1.1,0.5,1.3,1.2l0.1-0.1
		c1.3-0.9,2.8-1.3,4.4-1.3h0.1c2.5,0,4.6,1,6.2,2.9h0l0,0c0,0,0,0,0,0c0,0,0,0,0,0c0,0,0,0,0,0c0,0,0,0,0,0c1.6-1.9,3.6-2.8,6.1-2.8
		H187.9z"/>
</g>
</svg>
