<?xml version="1.0" encoding="utf-8"?>
<!-- Generator: Adobe Illustrator 22.1.0, SVG Export Plug-In . SVG Version: 6.00 Build 0)  -->
<svg version="1.1" id="Layer_1" xmlns="http://www.w3.org/2000/svg" xmlns:xlink="http://www.w3.org/1999/xlink" x="0px" y="0px"
	 viewBox="0 0 680 680" style="enable-background:new 0 0 680 680;" xml:space="preserve">
<path d="M101.8,580.5c0-25.5,0-51,0-76.4c3.6-0.6,7.1-1.4,10.7-1.9c39.2-5.6,62.1-27.2,62.9-59.4c0.8-32.4-21.2-55-60.2-62
	c-4.5-0.8-8.9-1.6-13.4-2.3c0-38.2,0-76.4,0-114.7c5.4-0.5,10.8-1,16.2-1.6c32.6-3.8,54.8-25.4,57.3-55.5
	c2.4-28.9-17.8-54.6-49.1-62.8c-5.8-1.5-11.5-3.6-17.6-5.5c0-25.1-0.6-48.7,0.2-72.3c1-28.5,16.1-47.9,42.8-56.9
	c59.5-20.2,110-0.9,142.8,53.3c15.6,25.8,31.3,51.5,48.6,80c21-33.3,41.3-61.5,57.1-91.9c12-23,27.4-39.6,51.1-48.8
	c25.5,0,51,0,76.4,0c26.6,13.7,50.3,29.7,50.3,64.1c0.1,170,0.3,340-0.3,510c-0.1,27.9-14.6,47.6-43.8,58
	c-26.5-43.6-52.7-86.7-81.4-133.8c-36.5,62.1-70.8,120.4-105.1,178.7c-3.6,0-7.3,0-10.9,0c-34.8-58.4-69.6-116.8-106.5-178.9
	c-29.5,47.4-56.4,90.7-83.2,133.7C118.9,624.2,109.2,603.3,101.8,580.5z M341.6,455.2c33.1,0.5,60.3-26.5,60.7-60
	c0.3-32.3-25.1-58.5-57.9-59.5c-33.2-1.1-61.2,25.2-62.2,58.4C281.3,427,308.2,454.8,341.6,455.2z"/>
</svg>
